<svg xmlns="http://www.w3.org/2000/svg" width="148" height="41" fill="none" xmlns:v="https://vecta.io/nano"><path d="M15.946 40.002c-.621-.033-1.208-.37-1.502-1.08-.294-.696-.18-1.374.374-1.924l2.544-2.478c.284-.261.317-.417.024-.697l-3.918-3.814c-.294-.294-.455-.237-.715.024l-2.539 2.478c-1.085.99-2.757.474-3.051-.933a1.56 1.56 0 0 1 .441-1.497l4.235-4.131a1.7 1.7 0 0 1 2.407.009l7.31 7.125c.677.663.677 1.653.009 2.331l-4.235 4.131c-.332.322-.763.469-1.383.455zm10.483-19.19c-.024 1.824-.497 3.525-1.525 5.031-.284.417-.213.621.123.91.497.426.947.91 1.412 1.374.725.744.749 1.758.081 2.478-.659.687-1.786.786-2.497.133l-3.269-3.188c-.687-.706-.597-1.71.171-2.463a6.06 6.06 0 0 0 1.829-3.582c.441-3.16-1.999-6.258-5.207-6.604-2.08-.223-3.852.37-5.344 1.848L3.244 25.48c-.45.45-.971.72-1.616.644-.725-.09-1.265-.46-1.516-1.17s-.081-1.341.45-1.857l4.562-4.444 4.889-4.747c5.377-5.017 14.312-2.445 16.132 4.638a9.54 9.54 0 0 1 .284 2.269z" fill-rule="evenodd" fill="#10847e"/><path d="M36.701 16.598h6.173c1.526 0 2.762.469 3.709 1.412s1.421 2.175 1.421 3.71c0 1.516-.488 2.748-1.469 3.681s-2.25 1.402-3.814 1.402H39.8v4.596h-3.098v-14.8zm3.098 2.539v5.15h2.246c.895 0 1.587-.223 2.075-.659s.734-1.075.734-1.905-.242-1.473-.73-1.919-1.175-.668-2.075-.668H39.8zm10.025 12.267V15.77h2.933v6.173h.185a3.17 3.17 0 0 1 1.289-1.525c.592-.365 1.303-.55 2.127-.55 1.222 0 2.175.37 2.857 1.109s1.023 1.786 1.023 3.141V31.4h-2.985v-6.571c0-.782-.175-1.369-.535-1.777s-.872-.606-1.549-.606c-.739 0-1.317.223-1.734.673s-.625 1.047-.625 1.791v6.495h-2.985zm15.982.176c-1.094 0-1.985-.313-2.672-.933s-1.033-1.445-1.033-2.473c0-1.019.379-1.824 1.132-2.407s1.838-.919 3.245-1l2.738-.166v-.924c0-.474-.166-.839-.493-1.094s-.801-.384-1.416-.384c-1.109 0-1.786.351-2.042 1.047h-2.748c.095-1.047.592-1.876 1.483-2.487s2.051-.919 3.473-.919c1.492 0 2.644.336 3.463 1.004s1.227 1.616 1.227 2.833v7.727h-2.89v-1.478h-.185c-.294.521-.734.924-1.312 1.218s-1.236.436-1.971.436zm.985-2.246c.692 0 1.27-.194 1.734-.587s.696-.872.696-1.445v-.829l-2.288.142c-1.274.09-1.909.545-1.909 1.364 0 .417.161.749.488.99s.753.365 1.279.365zm7.887 2.07V20.091h2.89v1.805h.185c.152-.573.493-1.052 1.033-1.426s1.161-.564 1.871-.564c.512 0 .9.047 1.17.142v2.719c-.318-.123-.787-.185-1.417-.185-.829 0-1.492.227-1.995.687s-.753 1.08-.753 1.867v6.268h-2.985zm8.871 0V20.09h2.89v1.848h.185c.232-.649.625-1.161 1.184-1.535s1.208-.559 1.942-.559c.787 0 1.45.185 1.985.549s.919.881 1.142 1.544h.185c.265-.635.706-1.142 1.312-1.526s1.308-.568 2.094-.568c1.127 0 2.023.341 2.677 1.028s.985 1.606.985 2.771v7.765h-2.984V24.43c0-1.341-.63-2.009-1.886-2.009-.602 0-1.085.194-1.445.573s-.545.881-.545 1.488v6.926h-2.876v-7.097c0-.597-.166-1.061-.493-1.388s-.786-.498-1.374-.498a1.84 1.84 0 0 0-1.435.616c-.374.412-.564.929-.564 1.559v6.813l-2.98-.009zm29.164-2.654v2.648h-9.807V16.594h9.807v2.648h-6.708V22.7h6.329v2.449h-6.329v3.601h6.708zm5.22 2.83c-1.094 0-1.985-.313-2.672-.933s-1.032-1.445-1.032-2.473c0-1.019.379-1.824 1.132-2.407s1.838-.919 3.245-1l2.738-.166v-.924c0-.474-.165-.839-.492-1.094s-.801-.384-1.417-.384c-1.108 0-1.786.351-2.042 1.047h-2.748c.095-1.047.593-1.876 1.483-2.487s2.052-.919 3.473-.919c1.492 0 2.644.336 3.463 1.004s1.227 1.616 1.227 2.833v7.727h-2.89v-1.478h-.185c-.293.521-.734.924-1.312 1.218s-1.236.436-1.971.436zm.986-2.246c.691 0 1.269-.194 1.734-.587s.696-.872.696-1.445v-.829l-2.288.142c-1.275.09-1.909.545-1.909 1.364 0 .417.161.749.488.99s.753.365 1.279.365zm7.216-5.922a3.08 3.08 0 0 1 1.298-2.591c.867-.653 2.004-.981 3.411-.981 1.436 0 2.563.289 3.378.872s1.265 1.412 1.35 2.492h-2.762a1.28 1.28 0 0 0-.62-.867c-.337-.209-.782-.313-1.332-.313-.54 0-.985.114-1.331.336s-.521.512-.521.867c0 .275.123.502.37.682s.63.332 1.16.445l2.123.464c1.099.242 1.904.606 2.416 1.099s.763 1.161.763 1.999c0 1.123-.46 2.023-1.374 2.71-.919.682-2.118 1.028-3.61 1.028s-2.672-.294-3.539-.881-1.355-1.426-1.46-2.511h2.914c.242.81.952 1.208 2.146 1.208.583 0 1.052-.114 1.417-.336s.545-.512.545-.876a.83.83 0 0 0-.337-.682c-.227-.175-.587-.317-1.089-.426l-2.052-.464c-1.099-.242-1.919-.625-2.459-1.166s-.805-1.236-.805-2.108zm12.4 12.108c-.635 0-1.014-.01-1.137-.028V33.09c.066.014.294.019.678.019.568 0 1.013-.099 1.331-.294s.545-.502.668-.928l.104-.408-3.97-11.389h3.293l2.378 8.575h.185l2.378-8.575h3.16l-3.899 11.489c-.479 1.45-1.104 2.468-1.881 3.056s-1.871.886-3.288.886zM37.715 9.793h-1.194l1.923-8.248H35.62l.227-.948h6.846l-.208.948h-2.838l-1.933 8.248zm7.208-7.02a2.12 2.12 0 0 1 1.142.313c.332.208.592.507.777.895h.076l.464-1.08h.881l-1.62 6.893h-.924l.18-1.312h-.057c-.829.962-1.706 1.44-2.62 1.44-.644 0-1.151-.208-1.516-.621s-.55-.985-.55-1.706c0-.872.166-1.682.493-2.426s.782-1.331 1.364-1.753 1.218-.644 1.909-.644zm-1.322 6.273c.45 0 .895-.194 1.341-.583s.805-.895 1.085-1.516.417-1.246.417-1.871c0-.431-.128-.777-.388-1.033s-.602-.384-1.023-.384c-.483 0-.929.18-1.345.54s-.739.848-.976 1.464a5.38 5.38 0 0 0-.355 1.952c0 .478.109.834.327 1.071s.526.36.919.36zm7.143-2.769l3.657-3.378h1.398L52.54 5.836l2.051 3.956h-1.298l-1.634-3.297-1.056.772-.569 2.52h-1.18L51.147 0h1.18l-.895 3.785-.711 2.482h.024v.009zm7.762 3.641c-.853 0-1.521-.227-2.009-.687s-.73-1.09-.73-1.9a5.21 5.21 0 0 1 .516-2.269c.346-.725.801-1.289 1.374-1.687a3.19 3.19 0 0 1 1.886-.602c.711 0 1.241.137 1.601.417s.535.668.535 1.165c0 .753-.384 1.345-1.156 1.777s-1.871.644-3.302.644h-.227l-.028.502c0 .55.142.976.426 1.289s.725.464 1.322.464a3.75 3.75 0 0 0 .9-.114c.308-.076.692-.213 1.151-.417v.919a6.81 6.81 0 0 1-1.156.388c-.336.075-.701.109-1.104.109zm.967-6.244c-.479 0-.924.199-1.346.592s-.739.943-.962 1.644h.085c1.056 0 1.867-.123 2.43-.374s.843-.611.843-1.085a.7.7 0 0 0-.256-.554c-.171-.147-.431-.223-.796-.223zm6.8 6.13h-1.166l1.625-6.893h1.166l-1.625 6.893zm.782-8.66c0-.237.076-.426.223-.573s.341-.223.578-.223c.407 0 .611.19.611.564a.79.79 0 0 1-.232.583c-.156.161-.336.237-.54.237-.185 0-.336-.052-.46-.156-.118-.095-.18-.242-.18-.431zm3.999 7.911c.256 0 .587-.052 1-.166v.81a3.66 3.66 0 0 1-.583.152 3.17 3.17 0 0 1-.554.062c-.578 0-1.023-.123-1.331-.374s-.464-.621-.464-1.118c0-.275.043-.592.123-.943l.881-3.785h-1.194l.099-.46 1.284-.493.867-1.435h.682l-.384 1.587h1.904l-.18.801h-1.9l-.895 3.8c-.085.365-.123.64-.123.829 0 .237.066.417.204.54.137.133.322.194.564.194zm7.895.863c-.853 0-1.521-.227-2.009-.687s-.73-1.09-.73-1.9a5.21 5.21 0 0 1 .516-2.269c.346-.725.801-1.289 1.374-1.687a3.19 3.19 0 0 1 1.886-.602c.711 0 1.241.137 1.601.417s.535.668.535 1.165c0 .753-.384 1.345-1.156 1.777s-1.871.644-3.302.644h-.227l-.029.502c0 .55.142.976.426 1.289s.725.464 1.322.464a3.75 3.75 0 0 0 .9-.114c.308-.076.692-.213 1.151-.417v.919a6.81 6.81 0 0 1-1.156.388c-.336.075-.701.109-1.104.109zm.966-6.244c-.478 0-.924.199-1.345.592s-.739.943-.962 1.644h.085c1.056 0 1.867-.123 2.43-.374s.843-.611.843-1.085a.7.7 0 0 0-.256-.554c-.171-.147-.436-.223-.796-.223zm6.904-.901a2.12 2.12 0 0 1 1.142.313c.332.208.592.507.777.895h.076l.464-1.08h.881l-1.62 6.893h-.924l.18-1.312h-.057c-.829.962-1.701 1.44-2.62 1.44-.644 0-1.151-.208-1.516-.621s-.55-.985-.55-1.706a5.97 5.97 0 0 1 .493-2.426c.327-.749.782-1.331 1.364-1.753s1.218-.644 1.909-.644zm-1.322 6.273c.45 0 .895-.194 1.341-.583s.805-.895 1.085-1.516.417-1.246.417-1.871c0-.431-.128-.777-.388-1.033s-.602-.384-1.023-.384c-.483 0-.929.18-1.346.54s-.739.848-.976 1.464a5.38 5.38 0 0 0-.355 1.952c0 .478.109.834.327 1.071s.526.36.919.36zm10.035-1.209c0 .654-.256 1.165-.767 1.53s-1.232.55-2.165.55c-.782 0-1.492-.147-2.122-.436v-.995a4.45 4.45 0 0 0 1.052.407c.379.095.725.147 1.042.147.583 0 1.023-.104 1.322-.313s.445-.479.445-.805a.82.82 0 0 0-.242-.602c-.161-.161-.512-.388-1.052-.673-.602-.308-1.028-.606-1.279-.9s-.374-.64-.374-1.042a1.66 1.66 0 0 1 .701-1.398c.469-.351 1.085-.531 1.848-.531.791 0 1.559.156 2.293.464l-.374.862-.389-.156c-.469-.18-.976-.27-1.53-.27-.431 0-.767.09-1.014.275s-.37.417-.37.706a.82.82 0 0 0 .246.602c.165.166.502.384 1.019.649.498.251.853.469 1.066.649s.374.374.483.583c.104.199.161.436.161.696zm1.751-4.939h1.17l.516 3.43c.047.289.09.715.137 1.279l.066 1.364h.043l.606-1.26.536-.981 2.26-3.833h1.236l-4.847 8.068c-.431.72-.857 1.222-1.279 1.502s-.929.422-1.521.422c-.336 0-.658-.043-.971-.133v-.848a3.62 3.62 0 0 0 .91.114c.379 0 .706-.104.976-.317s.535-.526.791-.938l.531-.858-1.161-7.012z" fill="#10847e"/></svg>